<svg width="30" height="20" viewBox="0 0 30 20" fill="none" xmlns="http://www.w3.org/2000/svg">
<path d="M15.0298 6.52703C16.8094 6.52703 18.2445 5.09184 18.2445 3.31234C18.2445 1.53285 16.8208 0.0976562 15.0298 0.0976562C13.2502 0.0976562 11.8151 1.53285 11.8151 3.31234C11.8265 5.10344 13.2617 6.52703 15.0298 6.52703ZM7.5671 15.8383H1.7921C-0.0792701 15.8383 -0.18263 12.9795 1.82655 12.9795H6.83221L9.70249 8.75441C10.5521 7.59484 11.5166 7.04371 12.8827 7.04371H17.1652C18.5315 7.04371 19.4958 7.54891 20.3455 8.75441L23.2272 12.9795H28.2674C30.2881 12.9795 30.1618 15.8383 28.3364 15.8383H22.5614C22.1021 15.8383 21.551 15.6775 21.2295 15.1839L19.0251 12.0381L19.0136 19.9142H11.1147L11.1032 12.0381L8.89882 15.1839C8.57737 15.666 8.02635 15.8383 7.5671 15.8383Z" fill="white"/>
</svg>
