<svg width="30" height="30" viewBox="0 0 30 30" fill="none" xmlns="http://www.w3.org/2000/svg">
<path d="M8.75516 5.44104C8.555 5.44104 8.39258 5.6034 8.39258 5.80362V6.91315C8.39258 7.11342 8.55494 7.27573 8.75516 7.27573C8.95543 7.27573 9.11773 7.11342 9.11773 6.91315V5.80356C9.11773 5.6034 8.95543 5.44104 8.75516 5.44104Z" fill="white"/>
<path d="M10.1099 1.95063C10.1099 1.95063 10.1097 1.95063 10.1097 1.95051L8.96874 0.860669C8.84915 0.745884 8.66171 0.745884 8.54212 0.860317L7.40071 1.95057C7.30907 2.03823 7.28042 2.17088 7.32759 2.28854C7.37487 2.4062 7.48725 2.48231 7.61405 2.48231H8.39487L8.39809 4.25067C8.39856 4.45083 8.56069 4.61278 8.76067 4.61278C8.76091 4.61278 8.76114 4.61278 8.76137 4.61278C8.96153 4.61219 9.12372 4.44959 9.12325 4.24944L9.12003 2.48237H9.89663C10.0233 2.48237 10.1357 2.40625 10.183 2.28872C10.2302 2.171 10.2015 2.03829 10.1099 1.95063Z" fill="white"/>
<path d="M21.2449 5.44116C21.0447 5.44116 20.8823 5.60353 20.8823 5.80374V6.91327C20.8823 7.11354 21.0447 7.27585 21.2449 7.27585C21.4452 7.27585 21.6075 7.11354 21.6075 6.91327V5.80368C21.6075 5.60353 21.4452 5.44116 21.2449 5.44116Z" fill="white"/>
<path d="M22.5998 1.9506L22.5996 1.95048L21.4586 0.860635C21.3389 0.745615 21.1513 0.74585 21.032 0.860283L19.8906 1.95042C19.799 2.03796 19.7701 2.17073 19.8173 2.28839C19.8644 2.40616 19.9769 2.48228 20.1037 2.48228H20.8846L20.8878 4.25063C20.8883 4.45079 21.0504 4.61274 21.2504 4.61274C21.2507 4.61274 21.2508 4.61274 21.2511 4.61274C21.4513 4.61216 21.6134 4.44956 21.6129 4.2494L21.6097 2.48228H22.3866C22.5133 2.48228 22.6257 2.40616 22.673 2.28851C22.72 2.17085 22.6915 2.03825 22.5998 1.9506Z" fill="white"/>
<path d="M15.0633 0.786133C13.3397 0.786133 11.9424 2.18336 11.9424 3.90695C11.9424 5.63055 13.3397 7.02801 15.0633 7.02801C16.787 7.02801 18.1843 5.63055 18.1843 3.90695C18.1843 2.18336 16.787 0.786133 15.0633 0.786133ZM16.6297 3.69385C16.6297 4.0658 16.4694 4.42012 16.1899 4.66568L15.2733 5.47111C15.2135 5.52361 15.1385 5.54998 15.0634 5.54998C14.9883 5.54998 14.9134 5.52367 14.8534 5.47111L13.937 4.66568C13.6574 4.42023 13.4972 4.06592 13.4972 3.69385V3.52674C13.4972 3.04861 13.8753 2.65275 14.3402 2.64426C14.6295 2.64367 14.9035 2.784 15.0633 3.01469C15.22 2.78834 15.4815 2.64414 15.7705 2.64414C15.7758 2.64414 15.7812 2.64426 15.7864 2.64426C16.2514 2.65275 16.6296 3.04855 16.6296 3.52674V3.69385H16.6297Z" fill="white"/>
<path d="M22.5191 10.4233C22.6358 10.3068 22.6358 10.1177 22.5192 10.001L21.45 8.9318C21.3335 8.81532 21.1444 8.81532 21.0279 8.9318L16.7274 13.2109C16.5999 13.3385 16.427 13.3886 16.2466 13.3886H13.8906C13.7102 13.3886 13.5374 13.3385 13.4099 13.2109L9.09889 8.91076C8.9824 8.79428 8.79344 8.79967 8.67695 8.91616L7.60738 9.98842C7.4909 10.105 7.4909 10.2952 7.60738 10.4116L12.4152 15.2201C12.6844 15.4893 12.8114 15.8698 12.7582 16.2468L11.0263 28.9031C11.0039 29.0718 11.1357 29.2089 11.3058 29.2089H13.0262C13.1673 29.2089 13.2859 29.1195 13.3057 28.9798L14.2379 22.2227C14.2537 22.108 14.2919 22.0035 14.3472 21.9086C14.6412 21.409 15.3992 21.4108 15.6918 21.9104C15.7472 22.0053 15.7854 22.1143 15.8027 22.2292L16.7347 28.9792C16.7545 29.119 16.873 29.2089 17.0142 29.2089H18.7347C18.9047 29.2089 19.0366 29.0721 19.0142 28.9034L17.3504 16.25C17.2993 15.8746 17.4269 15.5006 17.695 15.2329L22.5191 10.4233ZM15.8121 17.8642L15.0637 18.3898L15.0757 18.3895L15.0879 18.3898V18.3892L14.3269 17.8642C14.3048 17.8488 14.2882 17.8214 14.2945 17.7951L14.9029 15.2132C14.9072 15.1942 14.9017 15.1744 14.8902 15.1589L14.4721 14.5703C14.44 14.5269 14.4702 14.4433 14.5244 14.4433H15.6023C15.6563 14.4433 15.6874 14.5269 15.6554 14.5703L15.238 15.1479C15.2266 15.1635 15.2224 15.1887 15.2269 15.2077L15.8385 17.7923C15.8447 17.8185 15.8342 17.8488 15.8121 17.8642Z" fill="white"/>
<path d="M15.0633 8.11218C13.8633 8.11218 12.8906 9.08507 12.8906 10.285C12.8906 11.4848 13.8634 12.4577 15.0633 12.4577C16.2632 12.4577 17.2361 11.4848 17.2361 10.285C17.2361 9.08507 16.2632 8.11218 15.0633 8.11218ZM16.0617 10.6431C15.9829 11.1364 15.5628 11.4943 15.0627 11.4943C14.5676 11.4943 14.1482 11.1406 14.0654 10.6532C14.0524 10.5768 14.0736 10.4987 14.1235 10.4395C14.1733 10.3801 14.2465 10.3476 14.324 10.3474L15.8 10.3417C15.8004 10.3417 15.8009 10.3417 15.8013 10.3417C15.8783 10.3417 15.9513 10.3733 16.0014 10.4318C16.0518 10.4905 16.0738 10.5667 16.0617 10.6431Z" fill="white"/>
</svg>
