<svg width="119" height="233" viewBox="0 0 119 233" fill="none" xmlns="http://www.w3.org/2000/svg">
<path d="M63.2465 0.111511C57.8403 0.855118 52.4944 3.95012 49.2185 8.27104C46.2441 12.1498 44.8574 16.3502 44.8574 21.3745C44.8574 27.1224 46.8671 32.0663 50.8665 36.2064C52.2934 37.6735 55.3482 39.9646 56.2928 40.2661C56.7148 40.3867 56.7148 40.4872 56.7148 47.8428V55.2788L46.023 55.1783C36.2155 55.098 35.1503 55.0578 33.4018 54.6759C26.9506 53.3093 22.2076 50.2947 19.6753 45.9737C18.1479 43.3611 17.0828 38.4372 17.4043 35.503L17.545 34.3374H8.78256H0L0.140682 35.6839C1.30633 47.8629 7.25516 58.213 16.721 64.5839C20.2381 66.9554 26.1266 69.4877 30.5078 70.5327C35.0699 71.618 34.2258 71.5778 63.8494 71.7185C85.9364 71.819 91.5436 71.8793 92.1867 72.1003C94.7793 72.9645 96.0454 74.3111 96.8694 77.0443C97.2713 78.3908 97.4522 89.4243 97.1105 91.9365C96.6885 95.152 95.6032 97.3627 93.9151 98.4279C92.2068 99.5132 91.222 99.694 86.2178 99.7945L81.6356 99.9151V108.095V116.294L86.2178 116.395C91.1617 116.495 92.2671 116.676 93.694 117.621C95.3219 118.686 96.1057 120.656 96.5076 124.575C96.6081 125.62 96.7086 131.146 96.7086 136.834C96.7086 150.761 97.0503 158.821 97.7336 162.317L97.9345 163.363H108.104H118.273L118.132 162.257C117.771 159.162 117.61 152.872 117.529 140.05C117.429 125.097 117.308 122.766 116.424 119.148C115.178 114.144 112.766 110.748 109.048 108.758L107.943 108.155L109.752 107.009C114.133 104.236 116.665 99.9754 117.851 93.4237C118.273 91.1326 118.313 90.3086 118.313 83.8774C118.313 77.5266 118.273 76.6021 117.871 74.4316C116.344 66.0108 112.766 60.8659 106.295 57.8513C101.311 55.4999 96.5277 54.9372 83.7056 55.1582L75.6064 55.2989V47.9232V40.5474L76.2294 40.2058C81.1934 37.4524 84.8512 33.0712 86.5192 27.8861C87.3231 25.4543 87.5241 23.6254 87.4035 20.3295C87.2829 17.0737 86.9413 15.3252 85.856 12.8131C84.5296 9.65778 81.9973 6.42209 79.1636 4.25157C76.6313 2.30212 73.1344 0.79483 69.8786 0.272293C68.2105 -0.00907898 64.7136 -0.0894623 63.2465 0.111511ZM68.9742 13.8983C70.5418 14.4811 72.5516 16.511 73.1947 18.159C73.7775 19.6462 73.8177 21.9172 73.3153 23.2838C72.5114 25.4342 70.7227 27.2229 68.5723 28.0268C67.2659 28.5091 64.9346 28.489 63.5881 27.9464C60.5534 26.7606 58.6643 24.0274 58.6643 20.8721C58.6643 18.8222 59.227 17.3953 60.674 15.8478C62.9249 13.416 65.8591 12.7327 68.9742 13.8983Z" fill="black"/>
<path d="M67.1654 76.7228C62.3621 78.0291 58.7446 81.526 57.0765 86.4901L56.6142 87.8969L56.5539 140.492C56.5338 169.432 56.4735 193.107 56.4334 193.107C56.1721 193.107 52.655 191.78 51.4291 191.218C48.6959 189.972 45.1185 187.6 42.948 185.61L41.9431 184.686L44.1338 182.475C45.3597 181.249 46.3043 180.204 46.244 180.144C46.0832 180.003 17.0425 172.226 16.942 172.306C16.8817 172.386 24.4383 200.804 24.6996 201.507C24.78 201.688 25.6844 200.925 27.5534 199.056L30.3068 196.322L31.0906 197.146C33.1606 199.277 37.7227 202.573 41.6417 204.763C52.2531 210.672 60.4327 219.876 65.6581 231.794L66.1806 233L66.8438 231.493C70.4211 223.293 75.767 216.138 82.6403 210.35C84.6702 208.642 89.0313 205.688 92.6488 203.577C95.2414 202.07 98.1957 199.9 100.447 197.85L102.075 196.362L104.768 199.056C106.235 200.523 107.501 201.668 107.581 201.588C107.762 201.387 115.479 172.426 115.379 172.326C115.278 172.226 86.2378 180.003 86.077 180.164C86.0167 180.204 86.9613 181.249 88.1872 182.475L90.3778 184.706L89.2725 185.711C86.0368 188.645 81.9771 191.017 77.3346 192.624L75.345 193.308L75.4857 134.824L75.6264 76.3409L72.049 76.361C69.2756 76.361 68.1702 76.4414 67.1654 76.7228Z" fill="black"/>
</svg>
