<svg width="20" height="28" viewBox="0 0 20 28" fill="none" xmlns="http://www.w3.org/2000/svg">
<path d="M14.5133 20.8593V25.1399L16.5642 25.9935V19.7375C15.92 20.1793 15.2329 20.5552 14.5133 20.8593ZM3.43579 19.7375V25.9508L5.48669 25.0972V20.8593C4.76712 20.5552 4.08002 20.1793 3.43579 19.7375ZM9.99997 21.7699C9.03153 21.7705 8.06681 21.6499 7.12826 21.4112V27.8717L9.99997 26.6765L12.8717 27.8717V21.4112C11.9331 21.6499 10.9684 21.7704 9.99997 21.7699ZM9.99997 0.128296C4.48598 0.128296 0 4.61427 0 10.1283C0 15.6424 4.48598 20.1283 9.99997 20.1283C15.514 20.1283 20 15.6423 20 10.1283C20 4.61422 15.514 0.128296 9.99997 0.128296ZM9.99997 18.0152C5.6286 18.0152 2.07219 14.4588 2.07219 10.0874C2.07219 5.71599 5.6286 2.15958 9.99997 2.15958C14.3713 2.15958 17.9278 5.71599 17.9278 10.0874C17.9278 14.4588 14.3714 18.0152 9.99997 18.0152ZM9.99997 3.80115C6.53378 3.80115 3.71377 6.62112 3.71377 10.0874C3.71377 13.5537 6.53378 16.3736 9.99997 16.3736C13.4662 16.3736 16.2862 13.5536 16.2862 10.0874C16.2862 6.62112 13.4662 3.80115 9.99997 3.80115ZM12.5836 13.7562L9.99997 12.3979L7.41637 13.7562L7.90979 10.8793L5.81961 8.84189L8.70823 8.42211L9.99997 5.80458L11.2918 8.42211L14.1804 8.84189L12.0902 10.8793L12.5836 13.7562Z" fill="white"/>
</svg>
